<svg id="svg-icon" width="24" height="24" viewBox="0 0 24 24" xmlns="http://www.w3.org/2000/svg">
  <path
    id="svg-icon"
    clip-rule="evenodd"
    fill="#aaa"
    d="M0 2C0 0.895431 0.895432 0 2 0H15.9994H16H21.9994C23.1039 0 23.9994 0.895429 23.9994 2V5.25053C23.9994 6.3551 23.1039 7.25053 21.9994 7.25053H16.4667C16.2086 7.25053 15.9994 7.04128 15.9994 6.78316C15.9994 6.52504 15.7901 6.31579 15.532 6.31579H9.26316C8.56553 6.31579 8 6.88132 8 7.57894C8 8.27657 8.56553 8.8421 9.26316 8.8421H22C23.1046 8.8421 24 9.73753 24 10.8421L24 13.44L24 15.1579V17.6842L24 18.24L24 22C24 23.1046 23.1046 24 22 24L8 24L2 24C0.89543 24 0 23.1046 0 22V17.6842C0 17.168 0.418496 16.7495 0.934736 16.7495H7.53263C7.79075 16.7495 8 16.9587 8 17.2168C8 17.475 8.20925 17.6842 8.46737 17.6842H15.0568C15.7545 17.6842 16.32 17.1187 16.32 16.421C16.32 15.7234 15.7545 15.1579 15.0568 15.1579H2C0.895431 15.1579 0 14.2625 0 13.1579V9V8.8421V6.31579V5V2Z"/>
</svg>
