<svg fill="none" height="16" viewBox="0 0 16 16" width="16" xmlns="http://www.w3.org/2000/svg"><path clip-rule="evenodd" d="m6.48777 4.00285c-.04083-.24228-.07159-.48182-.09146-.72138-.02995-.35934-.01144-.72144-.02205-1.08078-.00463-.15245-.02287-.5499-.01552-.60707.06669-.49818.46878-.57441.58638-.58803.0569-.008163.6411-.073469.76714.57444.15463.79219.20418 1.58981.14946 2.37112.12768.66424.34601 1.32574.6343 1.92465 1.14718 2.38201 3.33318 2.61342 5.70158 2.59164.3643-.00545.6667.28039.6858.64246.019.36479-.2521.68057-.6147.71324-1.3239.12795-3.6727 1.18966-4.48477 2.29496-.16987.2314-.26868.7894-.39935 1.3366-.1824.7595-.39936 1.5109-.64246 1.8267-.03648.049-.47995.5499-.61226.6234-.31796.1742-.57249.0735-.71704-.0191-.14456-.0925-.30817-.2749-.37351-.5771-.06833-.3158-.01061-.9637-.02123-1.1026-.03866-.5036-.13937-1.4918-.34491-2.3411-.1108-.4574-.22895-.8793-.42441-1.089-.72359-.7758-1.88057-.6615-2.85488-.5335-.11189.0136-.22377.0299-.33539.0436-.39664.117-.81779.2041-1.26289.2558-.67213.079-.78265-.539-.78864-.57982-.012522-.08984-.059078-.55262.44754-.73773.05527-.01906.46307-.1089.62015-.14429.21887-.04901.44019-.0871.66233-.12249 2.29463-.71325 3.5409-2.71688 3.75079-4.95462zm.78757 2.4746c.86624 1.79128 2.18083 2.65696 3.73906 3.04897h-.0002c-.973.50908-1.85803 1.14608-2.32708 1.78588-.17804.2422-.34137.7295-.48865 1.2767-.07976-.5091-.18756-1.0508-.32994-1.5136-.16197-.5281-.38004-.9664-.62342-1.22774-.46987-.50362-1.05952-.78402-1.69354-.92286.75898-.67241 1.33448-1.51088 1.72377-2.44735z" fill="#888" fill-rule="evenodd"/></svg>