<svg width="16" height="16" viewBox="0 0 16 16" fill="none" xmlns="http://www.w3.org/2000/svg">
<path fill-rule="evenodd" clip-rule="evenodd" d="M6.85363 3.20304C6.81007 2.94461 6.77726 2.6891 6.75606 2.43357C6.72412 2.05027 6.74386 1.66404 6.73254 1.28074C6.7276 1.11812 6.70815 0.694176 6.71599 0.633196C6.78713 0.101802 7.21602 0.0204863 7.34146 0.00596731C7.40215 -0.00274406 8.0253 -0.0724039 8.15975 0.618698C8.32468 1.4637 8.37753 2.3145 8.31917 3.14789C8.45536 3.85641 8.68824 4.56202 8.99576 5.20085C10.2194 7.74167 12.5511 7.9885 15.0774 7.96527C15.466 7.95946 15.7886 8.26435 15.8089 8.65056C15.8293 9.03967 15.54 9.3765 15.1532 9.41135C13.7411 9.54783 11.2357 10.6803 10.3695 11.8593C10.1883 12.1061 10.0829 12.7014 9.94355 13.285C9.74899 14.0952 9.51757 14.8966 9.25826 15.2335C9.21935 15.2857 8.74631 15.82 8.60519 15.8984C8.26602 16.0843 7.99453 15.9768 7.84034 15.8781C7.68615 15.7794 7.51162 15.5848 7.44193 15.2625C7.36905 14.9257 7.43061 14.2345 7.41928 14.0864C7.37805 13.5492 7.27062 12.4952 7.05138 11.5892C6.9332 11.1014 6.80717 10.6513 6.59868 10.4277C5.82685 9.6001 4.59274 9.72207 3.55347 9.85854C3.43412 9.87306 3.31478 9.8905 3.19572 9.90502C2.77264 10.0299 2.32341 10.1228 1.84865 10.178C1.1317 10.2622 1.01381 9.603 1.00742 9.55945C0.994067 9.46362 0.944407 8.96999 1.4848 8.77253C1.54375 8.7522 1.97874 8.65637 2.14629 8.61862C2.37976 8.56635 2.61583 8.52571 2.85278 8.48796C5.30038 7.72717 6.62974 5.58996 6.85363 3.20304ZM7.69369 5.84262C8.61768 7.75331 10.0199 8.6767 11.682 9.09485H11.6818C10.6439 9.63786 9.69992 10.3174 9.19959 10.9998C9.00968 11.2582 8.83546 11.7779 8.67837 12.3616C8.59329 11.8186 8.4783 11.2407 8.32643 10.7471C8.15366 10.1838 7.92105 9.71627 7.66146 9.43751C7.16026 8.90031 6.5313 8.60121 5.855 8.45312C6.66458 7.73588 7.27845 6.84152 7.69369 5.84262Z" fill="#777777"/>
</svg>
