<svg fill="none" height="16" viewBox="0 0 16 16" width="16" xmlns="http://www.w3.org/2000/svg"><g fill="#777"><path d="m3.85721 2.19098c-2.62438 1.97445-4.438968 5.12772-3.685322 8.60502.837602 3.7721 4.467032 5.3929 7.845052 5.1866 1.64713-.1178 3.43386-.4126 4.91356-1.2671 1.5075-.8841 2.2055-2.387 2.5963-4.0962.8376-3.62471-.0837-7.04321-3.2386-8.98818-2.76392-1.6798629-8.51505-2.94694-10.24598.8545-.39085.85451.80953 1.59124 1.20039.73673 1.50749-3.330084 7.39839-1.38505 9.38059.47156 1.34 1.23771 1.9542 2.91752 1.8426 4.77398-.1396 1.82701-.6142 4.00781-2.2335 4.98041-2.68025 1.5912-7.25876 1.7682-9.52014-.6778-2.7359494-2.9175-.89349-7.27891 1.84266-9.31229.75424-.53034.05628-1.82705-.69756-1.26708z"/><path d="m6.3449 4.43209c.08374 1.14931.16748 2.32798.25122 3.47728.05589.64832-.08374 1.70922.44673 2.21023.5305.5303 1.47967.2358 2.09388.1474 1.08877-.1178 2.20547-.2064 3.29427-.32421.8935-.0884.8935-1.56188 0-1.47347-.7539.05899-1.5075.14739-2.2613.20638-.30715.0294-2.06605.41256-2.26138.20639.13963.11779.11159-.70732.11159-.79573-.02785-.35356-.05589-.73673-.08374-1.09031-.05589-.88413-.13963-1.73864-.19552-2.62277-.08355-.85472-1.47947-.88413-1.39572.05879z"/></g></svg>