<svg width="16" height="16" viewBox="0 0 16 16" fill="none" xmlns="http://www.w3.org/2000/svg">
<path fill-rule="evenodd" clip-rule="evenodd" d="M14.0256 0.820761L14.002 1.36931L14.002 1.36937L13.9814 1.84937C13.9443 1.83433 13.9027 1.82502 13.8569 1.82305C11.9064 1.78608 9.95593 1.7444 8.00789 1.70277L8.00783 1.70277L8.00781 1.70277L8.00778 1.70277C6.11511 1.66232 4.22472 1.62192 2.33885 1.58594C2.09573 1.58594 2.009 1.79853 2.05813 1.98176C1.99449 2.06167 1.97495 2.17232 2.04114 2.29636C2.73963 3.63252 3.48988 4.93485 4.30867 6.20324C3.96629 6.8759 3.6239 7.55242 3.28152 8.22895C2.91862 8.94601 2.55573 9.66307 2.19283 10.3755C2.10352 10.5596 2.19874 10.71 2.34443 10.776C2.39156 10.8391 2.46901 10.8829 2.5796 10.8874C4.41017 10.9421 6.24538 11.0014 8.08059 11.0607L8.08065 11.0607L8.08071 11.0607L8.08076 11.0607C9.91454 11.12 11.7483 11.1792 13.5774 11.2339L13.5851 11.2338C13.5326 12.5157 13.4812 13.7981 13.431 15.0819C13.4125 15.5743 14.0813 15.6656 14.0998 15.1731L14.1234 14.6252C14.3198 10.0494 14.5157 5.48911 14.6944 0.911971C14.7129 0.43775 14.0441 0.328329 14.0256 0.820761ZM3.02259 10.2414C4.73558 10.2931 6.45238 10.3486 8.16919 10.404L8.16924 10.404L8.1693 10.404L8.16936 10.404C9.98511 10.4627 11.8009 10.5214 13.6121 10.5756C13.7232 7.87687 13.8385 5.18027 13.9544 2.47916C13.941 2.48004 13.9271 2.4802 13.9126 2.47958C12.0267 2.4436 10.1364 2.4032 8.24376 2.36275L8.24367 2.36275L8.24362 2.36275L8.24356 2.36275C6.41802 2.32373 4.59036 2.28468 2.76256 2.24949C3.42126 3.50763 4.14592 4.73288 4.92064 5.92549L4.92067 5.92551C4.94222 5.95902 4.95682 5.9932 4.96542 6.02731C5.03389 6.10746 5.05899 6.21944 4.99798 6.34519C4.63509 7.05764 4.2722 7.77469 3.9093 8.49175C3.61373 9.07578 3.31816 9.65981 3.02259 10.2414Z" fill="#777777"/>
<path d="M14.002 1.36931L14.2518 1.38067L14.2518 1.38003L14.002 1.36931ZM14.0256 0.820761L14.2754 0.831486L14.2754 0.830152L14.0256 0.820761ZM14.002 1.36937L13.7523 1.35801L13.7523 1.35865L14.002 1.36937ZM13.9814 1.84937L13.8876 2.0811L14.216 2.21403L14.2312 1.8601L13.9814 1.84937ZM13.8569 1.82305L13.8676 1.57321L13.8616 1.5731L13.8569 1.82305ZM8.00789 1.70277L8.0018 1.9527L8.00255 1.95271L8.00789 1.70277ZM8.00783 1.70277L8.01393 1.45283L8.01151 1.45279L8.00783 1.70277ZM8.00781 1.70277L8.00204 1.95271L8.00413 1.95274L8.00781 1.70277ZM8.00778 1.70277L8.01355 1.45283L8.01312 1.45282L8.00778 1.70277ZM2.33885 1.58594L2.34362 1.33594H2.33885V1.58594ZM2.05813 1.98176L2.2537 2.13749L2.33225 2.03883L2.2996 1.91702L2.05813 1.98176ZM2.04114 2.29636L2.2627 2.18054L2.2617 2.17867L2.04114 2.29636ZM4.30867 6.20324L4.53147 6.31665L4.5967 6.18848L4.51871 6.06766L4.30867 6.20324ZM3.28152 8.22895L3.05846 8.11606L3.05846 8.11606L3.28152 8.22895ZM2.19283 10.3755L1.97002 10.262L1.9679 10.2664L2.19283 10.3755ZM2.34443 10.776L2.54467 10.6263L2.50619 10.5748L2.44764 10.5483L2.34443 10.776ZM2.5796 10.8874L2.56942 11.1372L2.57213 11.1373L2.5796 10.8874ZM8.08059 11.0607L8.09308 10.811L8.08867 10.8108L8.08059 11.0607ZM8.08076 11.0607L8.06828 11.3104L8.07269 11.3106L8.08076 11.0607ZM13.5774 11.2339L13.57 11.484L13.5795 11.4839L13.5774 11.2339ZM13.5851 11.2338L13.8349 11.2441L13.8456 10.9817L13.583 10.9838L13.5851 11.2338ZM13.431 15.0819L13.1812 15.0722L13.1812 15.0725L13.431 15.0819ZM14.0998 15.1731L13.8501 15.1624L13.85 15.1637L14.0998 15.1731ZM14.1234 14.6252L13.8736 14.6145L13.8736 14.6145L14.1234 14.6252ZM14.6944 0.911971L14.4446 0.90221L14.4446 0.902218L14.6944 0.911971ZM3.02259 10.2414L2.79972 10.1281L2.62119 10.4794L3.01504 10.4912L3.02259 10.2414ZM8.16919 10.404L8.18167 10.1543L8.17726 10.1542L8.16919 10.404ZM8.16936 10.404L8.15687 10.6538L8.16128 10.6539L8.16936 10.404ZM13.6121 10.5756L13.6046 10.8255L13.8517 10.8329L13.8619 10.5859L13.6121 10.5756ZM13.9544 2.47916L14.2042 2.48988L14.2161 2.21141L13.938 2.2297L13.9544 2.47916ZM13.9126 2.47958L13.9233 2.22974L13.9173 2.22962L13.9126 2.47958ZM8.24376 2.36275L8.2491 2.11281L8.24866 2.1128L8.24376 2.36275ZM8.24367 2.36275L8.23831 2.61269L8.23876 2.6127L8.24367 2.36275ZM8.24362 2.36275L8.23766 2.61268L8.23826 2.61269L8.24362 2.36275ZM8.24356 2.36275L8.24951 2.11282L8.2489 2.1128L8.24356 2.36275ZM2.76256 2.24949L2.76737 1.99954L2.34525 1.99141L2.54108 2.36545L2.76256 2.24949ZM4.92064 5.92549L4.71099 6.06167L4.7342 6.09741L4.76794 6.12343L4.92064 5.92549ZM4.92067 5.92551L5.13094 5.79028L5.10758 5.75395L5.07338 5.72757L4.92067 5.92551ZM4.96542 6.02731L4.723 6.08841L4.73731 6.14518L4.77534 6.1897L4.96542 6.02731ZM4.99798 6.34519L5.22079 6.45868L5.22291 6.45432L4.99798 6.34519ZM3.9093 8.49175L3.68624 8.37886L3.68624 8.37886L3.9093 8.49175ZM14.2518 1.38003L14.2754 0.831486L13.7758 0.810037L13.7523 1.35859L14.2518 1.38003ZM14.2518 1.38074L14.2518 1.38067L13.7523 1.35795L13.7523 1.35801L14.2518 1.38074ZM14.2312 1.8601L14.2518 1.3801L13.7523 1.35865L13.7316 1.83865L14.2312 1.8601ZM13.8462 2.07283C13.8643 2.0736 13.8777 2.07709 13.8876 2.0811L14.0752 1.61764C14.0108 1.59157 13.9411 1.57643 13.8676 1.57328L13.8462 2.07283ZM8.00255 1.95271C9.95054 1.99434 11.9013 2.03603 13.8521 2.07301L13.8616 1.5731C11.9115 1.53614 9.96132 1.49446 8.01323 1.45283L8.00255 1.95271ZM8.00174 1.95269L8.0018 1.95269L8.01399 1.45284L8.01393 1.45284L8.00174 1.95269ZM8.00413 1.95274L8.00416 1.95274L8.01151 1.45279L8.01149 1.45279L8.00413 1.95274ZM8.00201 1.9527L8.00204 1.9527L8.01358 1.45283L8.01355 1.45283L8.00201 1.9527ZM2.33408 1.83589C4.21962 1.87187 6.10972 1.91226 8.00244 1.95271L8.01312 1.45282C6.1205 1.41238 4.22983 1.37197 2.34362 1.33598L2.33408 1.83589ZM2.2996 1.91702C2.29509 1.90019 2.29406 1.88375 2.29558 1.86992C2.2971 1.85607 2.30078 1.84789 2.30289 1.84438C2.3045 1.84173 2.30516 1.84153 2.30575 1.84121C2.30639 1.84085 2.31522 1.83594 2.33885 1.83594V1.33594C2.13438 1.33594 1.96845 1.431 1.8749 1.58589C1.78816 1.7295 1.77751 1.90051 1.81665 2.0465L2.2996 1.91702ZM2.2617 2.17867C2.25486 2.16584 2.25208 2.15685 2.25093 2.1517C2.24981 2.14668 2.25 2.14428 2.25003 2.14391C2.25007 2.1435 2.25011 2.14329 2.25032 2.14279C2.25058 2.14216 2.25143 2.14033 2.2537 2.13749L1.86255 1.82603C1.73546 1.98564 1.70847 2.20397 1.82058 2.41405L2.2617 2.17867ZM4.51871 6.06766C3.70448 4.80632 2.95802 3.51067 2.26269 2.18054L1.81959 2.41218C2.52123 3.75438 3.27528 5.06337 4.09863 6.33883L4.51871 6.06766ZM4.08587 6.08984C3.74333 6.76279 3.40082 7.43958 3.05846 8.11606L3.50458 8.34184C3.84699 7.66527 4.18924 6.989 4.53147 6.31665L4.08587 6.08984ZM3.05846 8.11606C2.69554 8.83317 2.33279 9.54994 1.97006 10.2621L2.41559 10.489C2.77866 9.7762 3.14171 9.05885 3.50458 8.34183L3.05846 8.11606ZM1.9679 10.2664C1.89389 10.419 1.88865 10.5801 1.95236 10.7223C2.01297 10.8575 2.12456 10.9508 2.24123 11.0037L2.44764 10.5483C2.41861 10.5352 2.40975 10.5203 2.40865 10.5178C2.40839 10.5172 2.40814 10.5168 2.40821 10.5147C2.40829 10.5124 2.40904 10.5026 2.41775 10.4847L1.9679 10.2664ZM2.58978 10.6376C2.5653 10.6366 2.55335 10.6317 2.54936 10.6297C2.54572 10.6279 2.54499 10.6267 2.54467 10.6263L2.1442 10.9257C2.24157 11.056 2.39275 11.13 2.56942 11.1372L2.58978 10.6376ZM8.08867 10.8108C6.2535 10.7515 4.41799 10.6922 2.58707 10.6375L2.57213 11.1373C4.40234 11.192 6.23725 11.2513 8.07252 11.3106L8.08867 10.8108ZM8.09313 10.811L8.09308 10.811L8.06811 11.3104L8.06816 11.3104L8.09313 10.811ZM8.09319 10.811L8.09313 10.811L8.06816 11.3104L8.06822 11.3104L8.09319 10.811ZM8.09325 10.811L8.09319 10.811L8.06822 11.3104L8.06828 11.3104L8.09325 10.811ZM13.5849 10.984C11.7561 10.9293 9.92266 10.8701 8.08884 10.8108L8.07269 11.3106C9.90641 11.3698 11.7405 11.4291 13.57 11.4838L13.5849 10.984ZM13.583 10.9838L13.5754 10.9839L13.5795 11.4839L13.5871 11.4838L13.583 10.9838ZM13.6809 15.0917C13.731 13.8081 13.7824 12.5258 13.8349 11.2441L13.3353 11.2236C13.2828 12.5056 13.2314 13.7882 13.1812 15.0722L13.6809 15.0917ZM13.85 15.1637C13.8476 15.2273 13.8274 15.2417 13.8269 15.2421C13.8229 15.2454 13.8102 15.2525 13.7853 15.2491C13.7605 15.2458 13.734 15.2326 13.7145 15.21C13.6974 15.1901 13.6785 15.1546 13.6809 15.0913L13.1812 15.0725C13.1669 15.4527 13.4286 15.7051 13.7178 15.7446C13.86 15.764 14.0169 15.7324 14.1429 15.6296C14.2724 15.524 14.3428 15.3652 14.3497 15.1825L13.85 15.1637ZM13.8736 14.6145L13.8501 15.1624L14.3496 15.1839L14.3731 14.6359L13.8736 14.6145ZM14.4446 0.902218C14.2659 5.47879 14.0701 10.0386 13.8736 14.6145L14.3731 14.6359C14.5696 10.0602 14.7655 5.49943 14.9442 0.921725L14.4446 0.902218ZM14.2754 0.830152C14.2767 0.79704 14.283 0.77813 14.2872 0.76896C14.2913 0.760278 14.2947 0.757369 14.2959 0.75643C14.2981 0.754701 14.3101 0.747098 14.3368 0.751106C14.3634 0.755102 14.3916 0.769497 14.4119 0.79271C14.4296 0.813035 14.4468 0.846233 14.4446 0.90221L14.9442 0.921733C14.9589 0.545938 14.6927 0.298895 14.411 0.256637C14.2705 0.235566 14.113 0.2633 13.9851 0.364732C13.8533 0.469348 13.7826 0.628581 13.7758 0.81137L14.2754 0.830152ZM3.01504 10.4912C4.72773 10.543 6.44426 10.5984 8.16111 10.6539L8.17726 10.1542C6.4605 10.0987 4.74343 10.0432 3.03013 9.99147L3.01504 10.4912ZM8.1567 10.6537L8.15676 10.6537L8.18173 10.1543L8.18167 10.1543L8.1567 10.6537ZM8.15676 10.6537L8.15682 10.6537L8.18178 10.1544L8.18173 10.1543L8.15676 10.6537ZM8.15682 10.6537L8.15687 10.6537L8.18184 10.1544L8.18178 10.1544L8.15682 10.6537ZM8.16128 10.6539C9.97698 10.7126 11.793 10.7713 13.6046 10.8255L13.6196 10.3257C11.8087 10.2715 9.99323 10.2129 8.17743 10.1542L8.16128 10.6539ZM13.8619 10.5859C13.973 7.88739 14.0882 5.19098 14.2042 2.48988L13.7046 2.46844C13.5887 5.16956 13.4735 7.86634 13.3623 10.5653L13.8619 10.5859ZM13.938 2.2297C13.9339 2.22996 13.9291 2.23006 13.9233 2.22981L13.9019 2.72935C13.9251 2.73034 13.9481 2.73011 13.9708 2.72862L13.938 2.2297ZM13.9173 2.22962C12.0318 2.19365 10.1418 2.15326 8.2491 2.11281L8.23841 2.6127C10.131 2.65314 12.0216 2.69355 13.9078 2.72953L13.9173 2.22962ZM8.24866 2.1128L8.24857 2.1128L8.23876 2.6127L8.23885 2.6127L8.24866 2.1128ZM8.24902 2.11281L8.24897 2.11281L8.23826 2.61269L8.23831 2.61269L8.24902 2.11281ZM8.24957 2.11282L8.24951 2.11282L8.2376 2.61268L8.23766 2.61268L8.24957 2.11282ZM8.2489 2.1128C6.42341 2.07379 4.59548 2.03473 2.76737 1.99954L2.75775 2.49945C4.58524 2.53462 6.41264 2.57368 8.23821 2.61269L8.2489 2.1128ZM2.54108 2.36545C3.20378 3.63123 3.93248 4.86322 4.71099 6.06167L5.13029 5.7893C4.35937 4.60254 3.63875 3.38404 2.98404 2.13353L2.54108 2.36545ZM4.76794 6.12343L4.76797 6.12346L5.07338 5.72757L5.07334 5.72754L4.76794 6.12343ZM4.71041 6.06074C4.71771 6.0721 4.72122 6.08134 4.723 6.08841L5.20784 5.96621C5.19243 5.90506 5.16673 5.84593 5.13094 5.79028L4.71041 6.06074ZM5.22291 6.45432C5.32827 6.23715 5.28703 6.01888 5.1555 5.86492L4.77534 6.1897C4.78174 6.19719 4.78234 6.20134 4.78248 6.20239C4.78261 6.20336 4.78284 6.20589 4.78201 6.21061C4.78117 6.21544 4.77896 6.2239 4.77306 6.23607L5.22291 6.45432ZM4.13237 8.60464C4.49528 7.88753 4.85803 7.17077 5.22075 6.45866L4.77522 6.23173C4.41215 6.94451 4.04911 7.66185 3.68624 8.37886L4.13237 8.60464ZM3.24545 10.3546C3.54114 9.77286 3.83681 9.18864 4.13237 8.60464L3.68624 8.37886C3.39065 8.96292 3.09518 9.54677 2.79972 10.1281L3.24545 10.3546Z" fill="#777777"/>
</svg>
