<svg fill="none" height="16" viewBox="0 0 16 16" width="16" xmlns="http://www.w3.org/2000/svg"><g fill="#777"><path clip-rule="evenodd" d="m13.0256.820761-.0236.548549v.00006l-.0206.48c-.0371-.01504-.0787-.02435-.1245-.02632-1.9505-.03697-3.90097-.07865-5.84901-.12028h-.00006-.00002-.00003c-1.89267-.04045-3.78306-.08085-5.66893-.11683-.24312 0-.32985.21259-.28072.39582-.063636.07991-.08318.19056-.01699.3146.69849 1.33616 1.44874 2.63849 2.26753 3.90688-.34238.67266-.68477 1.34918-1.02715 2.02571-.3629.71706-.72579 1.43412-1.08869 2.14655-.08931.1841.00591.3345.1516.4005.04713.0631.12458.1069.23517.1114 1.83057.0547 3.66578.114 5.50099.1733h.00006.00006.00005c1.83378.0593 3.66754.1185 5.49664.1732l.0077-.0001c-.0525 1.2819-.1039 2.5643-.1541 3.8481-.0185.4924.6503.5837.6688.0912l.0236-.5479c.1964-4.5758.3923-9.13609.571-13.713229.0185-.474221-.6503-.583642-.6688-.09121zm-11.00301 9.420639c1.71299.0517 3.42979.1072 5.1466.1626h.00005.00006.00006c1.81575.0587 3.63154.1174 5.44274.1716.1111-2.69873.2264-5.39533.3423-8.09644-.0134.00088-.0273.00104-.0418.00042-1.8859-.03598-3.77621-.07638-5.66884-.11683h-.00009-.00005-.00006c-1.82554-.03902-3.6532-.07807-5.481-.11326.6587 1.25814 1.38336 2.48339 2.15808 3.676l.00003.00002c.02155.03351.03615.06769.04475.1018.06847.08015.09357.19213.03256.31788-.36289.71245-.72578 1.4295-1.08868 2.14656-.29557.58403-.59114 1.16806-.88671 1.74965z" fill-rule="evenodd"/><path d="m13.002 1.36931.2498.01136v-.00064zm.0236-.548549.2498.010725v-.001333zm-.0236.548609-.2497-.01136v.00064zm-.0206.48-.0938.23173.3284.13293.0152-.35393zm-.1245-.02632.0107-.24984-.006-.00011zm-5.84901-.12028-.00609.24993.00075.00001zm-.00006 0 .0061-.24994-.00242-.00004zm-.00002 0-.00577.24994.00209.00003zm-.00003 0 .00577-.24994-.00043-.00001zm-5.66893-.11683.00477-.25h-.00477zm-.28072.39582.19557.15573.07855-.09866-.03265-.12181zm-.01699.3146.22156-.11582-.001-.00187zm2.26753 3.90688.2228.11341.06523-.12817-.07799-.12082zm-1.02715 2.02571-.22306-.11289zm-1.08869 2.14655-.222811-.1135-.00212.0044zm.1516.4005.20024-.1497-.03848-.0515-.05855-.0265zm.23517.1114-.01018.2498.00271.0001zm5.50099.1733.01249-.2497-.00441-.0002zm.00017 0-.01248.2497.00441.0002zm5.49664.1732-.0074.2501.0095-.0001zm.0077-.0001.2498.0103.0107-.2624-.2626.0021zm-.1541 3.8481-.2498-.0097v.0003zm.6688.0912-.2497-.0107-.0001.0013zm.0236-.5479-.2498-.0107zm.571-13.713229-.2498-.009761v.000008zm-11.67181 9.329429-.22287-.1133-.17853.3513.39385.0118zm5.1466.1626.01248-.2497-.00441-.0001zm.00017 0-.01249.2498.00441.0001zm5.44274.1716-.0075.2499.2471.0074.0102-.247zm.3423-8.09644.2498.01072.0119-.27847-.2781.01829zm-.0418.00042.0107-.24984-.006-.00012zm-5.66884-.11683.00534-.24994-.00044-.00001zm-.00009 0-.00536.24994.00045.00001zm-.00005 0-.00596.24993.0006.00001zm-.00006 0 .00595-.24993-.00061-.00002zm-5.481-.11326.00481-.24995-.42212-.00813.19583.37404zm2.15808 3.676-.20965.13619.02321.03573.03374.02602zm.00003.00002.21027-.13523-.02336-.03633-.0342-.02638zm.04475.1018-.24242.0611.01431.05677.03803.04452zm.03256.31788.22281.11349.00212-.00436zm-1.08868 2.14656-.22306-.11289zm10.3425-7.11172.0236-.548544-.4996-.021449-.0235.548553zm0 .00071v-.00007l-.4995-.02272v.00006zm-.0206.47936.0206-.48-.4995-.02145-.0207.48zm-.385.21273c.0181.00077.0315.00426.0414.00827l.1876-.46346c-.0644-.02607-.1341-.04121-.2076-.04436zm-5.84365-.12012c1.94799.04163 3.89875.08332 5.84955.1203l.0095-.49991c-1.9501-.03696-3.90028-.07864-5.84837-.12027zm-.00081-.00002h.00006l.01219-.49985h-.00006zm.00239.00005h.00003l.00735-.49995h-.00002zm-.00212-.00004h.00003l.01154-.49987h-.00003zm-5.66793-.11681c1.88554.03598 3.77564.07637 5.66836.11682l.01068-.49989c-1.89262-.04044-3.78329-.08085-5.6695-.11684zm-.03448.08113c-.00451-.01683-.00554-.03327-.00402-.0471.00152-.01385.0052-.02203.00731-.02554.00161-.00265.00227-.00285.00286-.00317.00064-.00036.00947-.00527.0331-.00527v-.5c-.20447 0-.370403.09506-.463952.24995-.086738.14361-.097384.31462-.058246.46061zm-.0379.26165c-.00684-.01283-.00962-.02182-.01077-.02697-.00112-.00502-.00093-.00742-.0009-.00779.00004-.00041.00008-.00062.00029-.00112.00026-.00063.00111-.00246.00338-.0053l-.391147-.31146c-.127092.15961-.154078.37794-.041977.58802zm2.25701 3.88899c-.81423-1.26134-1.56069-2.55699-2.25602-3.88712l-.443104.23164c.701644 1.3422 1.455694 2.65119 2.279044 3.92665zm-.43284.02218c-.34254.67295-.68505 1.34974-1.02741 2.02622l.44612.22578c.34241-.67657.68466-1.35284 1.02689-2.02519zm-1.02741 2.02622c-.36292.71711-.72567 1.43388-1.088399 2.14604l.445529.2269c.36307-.7128.72612-1.43015 1.08899-2.14716zm-1.090561 2.15034c-.074004.1526-.079251.3137-.015537.4559.060608.1352.172198.2285.288868.2814l.20641-.4554c-.02903-.0131-.03789-.028-.03899-.0305-.00026-.0006-.00051-.001-.00044-.0031.00008-.0023.00083-.0121.00954-.03zm.621881.3712c-.02448-.001-.03643-.0059-.04042-.0079-.00364-.0018-.00437-.003-.00469-.0034l-.40047.2994c.09737.1303.24855.2043.42522.2115zm5.49889.1732c-1.83517-.0593-3.67068-.1186-5.5016-.1733l-.01494.4998c1.83021.0547 3.66512.114 5.50039.1733zm.00446.0002h-.00005l-.02497.4994h.00005zm.00006 0h-.00006l-.02497.4994h.00006zm.00006 0h-.00006l-.02497.4994h.00006zm5.49165.173c-1.8288-.0547-3.66224-.1139-5.49606-.1732l-.01615.4998c1.83372.0592 3.66781.1185 5.49731.1732zm-.0019-.0002-.0076.0001.0041.5.0076-.0001zm.0979 4.1079c.0501-1.2836.1015-2.5659.154-3.8476l-.4996-.0205c-.0525 1.282-.1039 2.5646-.1541 3.8486zm.1691.072c-.0024.0636-.0226.078-.0231.0784-.004.0033-.0167.0104-.0416.007-.0248-.0033-.0513-.0165-.0708-.0391-.0171-.0199-.036-.0554-.0336-.1187l-.4997-.0188c-.0143.3802.2474.6326.5366.6721.1422.0194.2991-.0122.4251-.115.1295-.1056.1999-.2644.2068-.4471zm.0236-.5492-.0235.5479.4995.0215.0235-.548zm.571-13.712282c-.1787 4.576572-.3745 9.136382-.571 13.712282l.4995.0214c.1965-4.5757.3924-9.13647.5711-13.714175zm-.1692-.072065c.0013-.033113.0076-.052023.0118-.061193.0041-.008682.0075-.011591.0087-.01253.0022-.001729.0142-.009332.0409-.005324.0266.003996.0548.018391.0751.041604.0177.020325.0349.053523.0327.1095l.4996.019523c.0147-.375795-.2515-.622838-.5332-.665096-.1405-.021071-.298.006663-.4259.108095-.1318.104616-.2025.263849-.2093.446638zm-11.26036 9.661047c1.71269.0518 3.42922.1072 5.14607.1627l.01615-.4997c-1.71676-.0555-3.43383-.111-5.14713-.16273zm5.14166.1625h.00006l.02497-.4994h-.00006zm.00006 0h.00006l.02496-.4993-.00005-.0001zm.00006 0h.00005l.02497-.4993h-.00006zm.00446.0002c1.8157.0587 3.63172.1174 5.44332.1716l.015-.4998c-1.8109-.0542-3.62637-.1129-5.44217-.1715zm5.70062-.068c.1111-2.69851.2263-5.39492.3423-8.09602l-.4996-.02144c-.1159 2.70112-.2311 5.3979-.3423 8.09686zm.0761-8.3562c-.0041.00026-.0089.00036-.0147.00011l-.0214.49954c.0232.00099.0462.00076.0689-.00073zm-.0207-.00008c-1.8855-.03597-3.77552-.07636-5.6682-.11681l-.01069.49988c1.89259.04045 3.78319.08086 5.66939.11684zm-5.66864-.11682h-.00009l-.00981.4999h.00009zm.00036.00001h-.00005l-.01071.49988h.00005zm.00055.00001h-.00006l-.01191.49986h.00006zm-.00067-.00002c-1.82549-.03901-3.65342-.07807-5.48153-.11326l-.00962.49991c1.82749.03517 3.65489.07423 5.48046.11324zm-5.70782.25265c.6627 1.26578 1.3914 2.49777 2.16991 3.69623l.4193-.27238c-.77092-1.18676-1.49154-2.40526-2.14625-3.65577zm2.22686 3.75798.00003.00003.30541-.39589-.00004-.00003zm-.05753-.06269c.0073.01136.01081.0206.01259.02767l.48484-.1222c-.01541-.06115-.04111-.12028-.0769-.17593zm.5125.39358c.10536-.21717.06412-.43544-.06741-.5894l-.38016.32478c.0064.00749.007.01164.00714.01269.00013.00097.00036.0035-.00047.00822-.00084.00483-.00305.01329-.00895.02546zm-1.09054 2.15032c.36291-.71711.72566-1.43387 1.08838-2.14598l-.44553-.22693c-.36307.71278-.72611 1.43012-1.08898 2.14713zm-.88692 1.74996c.29569-.58174.59136-1.16596.88692-1.74996l-.44613-.22578c-.29559.58406-.59106 1.16791-.88652 1.74924z"/></g></svg>