<svg fill="none" height="16" viewBox="0 0 16 16" width="16" xmlns="http://www.w3.org/2000/svg" xmlns:xlink="http://www.w3.org/1999/xlink"><clipPath id="a"><path d="m0 0h16v16h-16z"/></clipPath><g clip-path="url(#a)"><path clip-rule="evenodd" d="m10.6305 2.33061c1.2358 1.67905.2149 3.73749-1.4506 4.65827l.00003.00003c-1.66552.89373-4.02962.7853-5.07732-.94781-.618-1.0292-.618-2.92501.40289-3.57505 0-.21667.10737-.40615.32231-.54161 1.79985-1.056212 4.37886-1.543802 5.80269.40617zm-1.4236 2.95199c.9401-.948.72538-2.24793-.51046-2.78954l.00001.00006c-.85975-.37917-1.74626-.16246-2.55224.27072.10756.40615-.08059.89374-.61782.83952-1.15508-.10828-.34911 1.73328-.10738 2.00419.34928.35212.83274.54161 1.34321.59582.85975.05422 1.82686-.29791 2.44468-.92077zm3.5586 4.41559c1.1552 1.24591 1.6657 3.00621 2.0685 4.63131h.0001c.1074.4062-.1881.8936-.6448.8392-3.8415-.298-7.62931-.027-11.36339.8125-.83274.1897-1.18202-1.1103-.34929-1.2999.0536-.0271.08058-.0271.10738-.0271-.75218-1.2999-.56404-2.8977.34928-4.0895 1.15515-1.5166 3.16994-2.11243 4.96982-2.35613 1.79989-.21666 3.5998.10843 4.8624 1.48962zm-8.94558 4.44161c.0536.0813.10738.1897.10738.2709h.00017c3.08935-.5958 6.23233-.7855 9.37553-.596-.6449-2.1937-1.6657-4.27917-4.29835-4.30619-2.14906-.02698-7.09216 1.57089-5.18473 4.63129z" fill="#777" fill-rule="evenodd"/></g></svg>