<svg clip-rule="evenodd" fill-rule="evenodd" stroke-linejoin="round" stroke-miterlimit="2" viewBox="0 0 16 16" xmlns="http://www.w3.org/2000/svg"><path d="m7.626 3.422-4.205 4.205-3.131-3.131c-.387-.387-.386-1.015 0-1.402l2.804-2.803c.387-.388 1.015-.388 1.402 0l1.051 1.051-1.927 1.928c-.097.096-.097.253 0 .35l.35.35c.023.023.05.042.08.054.03.013.062.019.095.019s.065-.006.095-.019c.03-.012.057-.031.08-.054l1.928-1.927zm7.934-1.568c.586.586.587 1.536 0 2.123l-1.438 1.438-3.537-3.537 1.438-1.438c.587-.587 1.537-.587 2.123 0zm-13.816 8.863 8.134-8.132 3.537 3.537-7.924 7.925zm-1 1-.148.148-.586 3.358c-.079.452.315.847.769.767l3.357-.589.355-.354zm13.915-1.264 1.051 1.052c.387.387.387 1.014 0 1.402l-2.804 2.803c-.387.387-1.014.387-1.401 0l-3.132-3.132 4.206-4.205 1.379 1.38-1.927 1.927c-.097.097-.097.254 0 .351l.35.35c.096.097.253.097.35 0z" fill="#555"/></svg>