<?xml version="1.0" encoding="UTF-8" standalone="no"?>
<!DOCTYPE svg PUBLIC "-//W3C//DTD SVG 1.1//EN" "http://www.w3.org/Graphics/SVG/1.1/DTD/svg11.dtd">
<svg width="100%" height="100%" viewBox="0 0 16 16" version="1.1" xmlns="http://www.w3.org/2000/svg" xmlns:xlink="http://www.w3.org/1999/xlink" xml:space="preserve" xmlns:serif="http://www.serif.com/" style="fill-rule:evenodd;clip-rule:evenodd;stroke-linejoin:round;stroke-miterlimit:2;">
    <g>
        <path d="M7.626,3.422L3.421,7.627L0.29,4.496C-0.097,4.109 -0.096,3.481 0.29,3.094L3.094,0.291C3.481,-0.097 4.109,-0.097 4.496,0.291L5.547,1.342L3.62,3.27C3.523,3.366 3.523,3.523 3.62,3.62L3.97,3.97C3.993,3.993 4.02,4.012 4.05,4.024C4.08,4.037 4.112,4.043 4.145,4.043C4.178,4.043 4.21,4.037 4.24,4.024C4.27,4.012 4.297,3.993 4.32,3.97L6.248,2.043L7.626,3.422ZM15.56,1.854C16.146,2.44 16.147,3.39 15.56,3.977L14.122,5.415L10.585,1.878L12.023,0.44C12.61,-0.147 13.56,-0.147 14.146,0.44L15.56,1.854ZM1.744,10.717L9.878,2.585L13.415,6.122L5.491,14.047L1.744,10.717ZM0.744,11.717L0.596,11.865L0.01,15.223C-0.069,15.675 0.325,16.07 0.779,15.99L4.136,15.401L4.491,15.047L0.744,11.717ZM14.659,10.453L15.71,11.505C16.097,11.892 16.097,12.519 15.71,12.907L12.906,15.71C12.519,16.097 11.892,16.097 11.505,15.71L8.373,12.578L12.579,8.373L13.958,9.753L12.031,11.68C11.934,11.777 11.934,11.934 12.031,12.031L12.381,12.381C12.477,12.478 12.634,12.478 12.731,12.381L14.659,10.453Z" style="fill:rgb(85,85,85);"/>
    </g>
</svg>
