<svg height="24" viewBox="0 0 24 24" width="24" xmlns="http://www.w3.org/2000/svg"><path clip-rule="evenodd" d="m0 2c0-1.104569.895432-2 2-2h13.9994.0006 5.9994c1.1045 0 2 .895429 2 2v3.25053c0 1.10457-.8955 2-2 2h-5.5327c-.2581 0-.4673-.20925-.4673-.46737s-.2093-.46737-.4674-.46737h-6.26884c-.69763 0-1.26316.56553-1.26316 1.26315 0 .69763.56553 1.26316 1.26316 1.26316h12.73684c1.1046 0 2 .89543 2 2v2.5979 1.7179 2.5263.5558 3.76c0 1.1046-.8954 2-2 2h-14-6c-1.10457 0-2-.8954-2-2v-4.3158c0-.5162.418496-.9347.934736-.9347h6.597894c.25812 0 .46737.2092.46737.4673 0 .2582.20925.4674.46737.4674h6.58943c.6977 0 1.2632-.5655 1.2632-1.2632 0-.6976-.5655-1.2631-1.2632-1.2631h-13.0568c-1.104569 0-2-.8954-2-2v-4.1579-.1579-2.52631-1.31579z" fill="#aaa"/></svg>