<svg fill="none" height="20" viewBox="0 0 20 20" width="20" xmlns="http://www.w3.org/2000/svg" xmlns:xlink="http://www.w3.org/1999/xlink"><clipPath id="a"><path d="m0 0h20v20h-20z"/></clipPath><g clip-path="url(#a)"><path d="m20 3.92406c-.7359.32633-1.5267.54688-2.3567.6461.8472-.50782 1.4978-1.31196 1.8041-2.27008-.8054.47796-1.6866.81471-2.6055.9957-.7485-.79742-1.8149-1.29578-2.9951-1.29578-2.2661 0-4.10336 1.83719-4.10336 4.10313 0 .32164.03633.63476.10625.93515-3.41016-.17117-6.4336-1.80469-8.45742-4.28719-.35313.60602-.555473 1.31094-.555473 2.06282 0 1.42359.724453 2.67945 1.825393 3.41531-.6516-.02041-1.28887-.1964-1.858596-.51328-.000235.01719-.000235.03437-.000235.05164 0 1.98805 1.414371 3.64652 3.291411 4.02342-.60423.1643-1.23803.1884-1.85297.0703.52211 1.6302 2.0375 2.8164 3.83297 2.8496-1.4043 1.1005-3.1736 1.7565-5.095942 1.7565-.33125 0-.657812-.0194-.978828-.0573 1.81586 1.1642 3.97266 1.8435 6.28984 1.8435 7.54746 0 11.67456-6.2524 11.67456-11.67462 0-.17796-.0039-.35492-.0119-.53085.8033-.58072 1.4967-1.29999 2.0475-2.12407" fill="#55acee"/></g></svg>