<svg fill="none" height="20" viewBox="0 0 20 20" width="20" xmlns="http://www.w3.org/2000/svg"><path d="m0 12.1149 3.25032 3.2459h-3.25032zm0-.8115 4.0629 4.0574h3.25035l-7.31325-7.30338zm0-4.05748 8.12583 8.11488h3.25027l-11.3761-11.3608zm4.0629 0 8.1258 8.11488v-3.2459l-8.1258-8.1149zm4.06293-3.24592v3.24592l4.06287 4.05748v-3.24598z" fill="#f9bd2b"/><path d="m19.5042 14.0625c-.8327 0-1.631-.3305-2.2193-.918l-4.5193-4.51316v6.72946h6.7386z" fill="#000"/><path d="m14.7145 14.0625c.359 0 .65-.2907.65-.6492s-.291-.6492-.65-.6492-.65.2907-.65.6492.291.6492.65.6492z" fill="#fff"/><g clip-rule="evenodd" fill-rule="evenodd"><path d="m4.0629 8.05742-4.0629-4.05742v3.24592l4.0629 4.05748zm-4.0629 7.30338h3.25032l-3.25032-3.2459zm0-4.0574v-3.24598l4.0629 4.05748v3.2459z" fill="#1d4aff"/><path d="m8.12543 8.05742-4.06293-4.05742v3.24592l4.06293 4.05748zm-4.06293 0v3.24598l4.06293 4.0574v-3.2459zm3.25035 7.30338h-3.25035v-3.2459z" fill="#f54e00"/></g></svg>