<svg fill="none" height="20" viewBox="0 0 20 20" width="20" xmlns="http://www.w3.org/2000/svg"><path clip-rule="evenodd" d="m12.8196.0456131-11.56238.8167859c-.932289.077467-1.25722.660931-1.25722 1.360401v12.1316c0 .5451.2025 1.0109.689583 1.6336l2.717987 3.3829c.44646.5447.85215.6612 1.70465.6222l13.42728-.7778c1.1356-.0774 1.4605-.5832 1.4605-1.4386v-13.64837c0-.4422-.1824-.56993-.72-.94646-.0296-.02067-.0603-.04214-.092-.06447l-3.6908-2.48848c-.8925-.6218803-1.2578-.7001336-2.6776-.5833069zm-7.40293 3.8588569c-1.09625.071-1.34535.08713-1.96792-.39807l-1.58313-1.20533c-.16145-.15587-.08048-.35027.32494-.38887l11.11594-.77773c.9327-.07794 1.4195.23366 1.7848.50566l1.9065 1.3222c.0812.03874.2837.27174.0402.27174l-11.47981.66126zm-1.27868 13.75533v-11.58693c0-.5054.16229-.73887.64882-.77814l13.18419-.73853c.4472-.03887.6497.23353.6497.73853v11.50927c0 .5059-.0814.9341-.8119.9727l-12.61623.7003c-.73014.0385-1.05458-.1945-1.05458-.8172zm12.45481-10.9654c.0809.35033 0 .70027-.3659.73967l-.6079.11619v8.55424c-.5277.2721-1.0144.4277-1.42.4277-.6493 0-.8119-.1946-1.2982-.7775l-3.97629-5.98804v5.79364l1.25819.2723s0 .6996-1.01506.6996l-2.79847.1557c-.08132-.1557 0-.5442.28382-.6221l.73027-.1941v-7.66024l-1.01395-.07793c-.08132-.35026.12118-.85533.68958-.89453l3.00211-.19413 4.138 6.06593v-5.36613l-1.055-.11614c-.081-.42826.2431-.7392.6488-.7778z" fill="#000" fill-rule="evenodd"/></svg>