<svg fill="none" height="20" viewBox="0 0 20 20" width="20" xmlns="http://www.w3.org/2000/svg"><path d="m6.66829 20c.88406 0 1.73191-.3512 2.35703-.9763s.97628-1.473.97628-2.357v-3.3334h-3.33331c-.88405 0-1.7319.3512-2.35702.9763s-.97631 1.473-.97631 2.3571c0 .884.35119 1.7319.97631 2.357s1.47297.9763 2.35702.9763z" fill="#0acf83"/><path d="m3.33496 10c0-.88404.35119-1.73189.97631-2.35701s1.47297-.97631 2.35702-.97631h3.33331v6.66662h-3.33331c-.88405 0-1.7319-.3511-2.35702-.9763-.62512-.6251-.97631-1.4729-.97631-2.357z" fill="#a259ff"/><path d="m3.33496 3.33333c0-.8836.35083-1.73105.97539-2.356099.62456-.625047 1.47174-.97654068 2.35534-.977231h3.33333v6.66667h-3.33073c-.88405 0-1.7319-.35119-2.35702-.97631-.62512-.62513-.97631-1.47297-.97631-2.35703z" fill="#f24e1e"/><path d="m10.0029 0h3.3334c.884 0 1.7319.351189 2.357.976311.6251.625119.9763 1.472969.9763 2.357019 0 .88406-.3512 1.7319-.9763 2.35703-.6251.62512-1.473.97631-2.357.97631h-3.3334z" fill="#ff7262"/><path d="m16.6696 10c0 .8841-.3512 1.7319-.9763 2.357-.6251.6252-1.473.9763-2.357.9763-.8841 0-1.7319-.3511-2.3571-.9763-.6251-.6251-.9763-1.4729-.9763-2.357 0-.88404.3512-1.73189.9763-2.35701.6252-.62512 1.473-.97631 2.3571-.97631.884 0 1.7319.35119 2.357.97631s.9763 1.47297.9763 2.35701z" fill="#1abcfe"/></svg>