<svg fill="none" height="20" viewBox="0 0 20 20" width="20" xmlns="http://www.w3.org/2000/svg"><path d="m18.6584 5.2251c-.8942-1.53214-2.1071-2.74514-3.6391-3.63927-1.5323-.894178-3.205-1.341152-5.01946-1.341152-1.81421 0-3.4875.447111-5.01942 1.341152-1.53214.89408-2.74505 2.10713-3.63927 3.63927-.894085 1.5321-1.34115 3.20516-1.34115 5.0191 0 2.179.635733 4.1385 1.90752 5.8788 1.27165 1.7405 2.91443 2.9448 4.9282 3.6131.23441.0435.40794.0129.52077-.091.11287-.1041.16924-.2344.16924-.3905 0-.026-.00224-.2603-.00657-.7031-.00447-.4427-.00657-.829-.00657-1.1586l-.29949.0518c-.19094.035-.43183.0498-.72265.0456-.29069-.004-.59245-.0345-.90489-.0911-.31258-.0562-.60331-.1864-.87243-.3904-.26897-.204-.45992-.471-.57279-.8006l-.13021-.2996c-.08678-.1995-.22342-.4211-.41008-.664-.18666-.2431-.37542-.4079-.56636-.4947l-.09117-.0653c-.06074-.0434-.11711-.0957-.16924-.1564-.05208-.0607-.09107-.1214-.11711-.1822-.02609-.0609-.00447-.1109.06508-.15.06954-.0392.19523-.0582.37761-.0582l.26031.0389c.17362.0348.38837.1387.64453.3124.25603.1736.4665.3992.63145.6769.19975.356.44041.6272.72265.8139.28203.1866.56637.2798.85277.2798s.53376-.0217.74218-.0649c.20818-.0434.40351-.1087.58588-.1954.07812-.5818.29083-1.0288.63792-1.3412-.49472-.052-.9395-.1303-1.33458-.2344-.39485-.1043-.80287-.2735-1.22381-.5081-.42116-.2343-.77054-.5252-1.04823-.8722-.27773-.3473-.50566-.8031-.68348-1.3672-.1779-.5643-.26688-1.2153-.26688-1.95309 0-1.05051.34295-1.94446 1.02871-2.68235-.32124-.78978-.29091-1.67516.09108-2.65603.25174-.07821.62506-.01952 1.11978.17572.49481.19532.8571.36265 1.08722.50138.23012.13868.41451.25621.55342.35152.80743-.22561 1.64068-.33843 2.49997-.33843.85925 0 1.69275.11282 2.50015.33843l.4948-.31235c.3384-.20841.7379-.39941 1.1977-.57302.4601-.17353.8119-.22132 1.055-.14311.3905.98091.4253 1.86624.104 2.65603.6857.73789 1.0288 1.63206 1.0288 2.68234 0 .73776-.0893 1.39086-.267 1.95946-.1778.5687-.4077 1.0242-.6897 1.3672-.2824.343-.634.6316-1.0549.8659-.4211.2344-.8292.4036-1.2241.5078-.395.1043-.8398.1826-1.3345.2347.4512.3905.6769 1.0068.6769 1.8488v2.7471c0 .156.0542.2863.1629.3904.1085.104.2798.1346.5142.091 2.0141-.6682 3.6568-1.8726 4.9284-3.6131 1.2715-1.7403 1.9075-3.6997 1.9075-5.8787-.0005-1.81378-.4478-3.4867-1.3415-5.0188z" fill="#000"/></svg>