<svg fill="none" height="6" viewBox="0 0 44 6" width="44" xmlns="http://www.w3.org/2000/svg"><path clip-rule="evenodd" d="m11.7275 3.53338c-1.89035.54221-4.07286 1.08181-6.17244 1.21655-1.79455.115-3.52792-.06362-4.94671-.82359-.199999-.10701-.450451-.03345-.5586125.16458-.1083259.19786-.033801.44565.1661975.55282 1.547725.82881 3.434925 1.0456 5.392385.92 2.13733-.13702 4.35925-.68022 6.28748-1.23026.2238.44842.6871.86649 1.5032 1.17495 1.2536.47387 2.9652.46799 4.7684.20097 2.6151-.38709 5.4283-1.31018 7.237-1.96609.0742-.02675.1847-.06932.3199-.12543.0412.09004.0874.17878.1385.26588.4435.75916 1.2283 1.37298 2.028 1.59222 5.0717 1.39011 10.9909-.27552 15.8103-1.63104.2177-.0615.3446-.28725.2836-.50371-.0626-.21646-.2902-.34223-.5095-.28073-4.6842 1.31768-10.4352 2.98019-15.3651 1.6294-.6068-.16639-1.197-.63812-1.5334-1.21426-.0379-.06427-.0709-.13001-.1022-.19673.6645-.32575 1.446-.77987 1.8664-1.26597.432-.49833.5392-1.030264.1633-1.532674-.3232-.4294952-.8129-.4660348-1.3224-.243376-.549.238482-1.1146.79602-1.2976 1.05766-.3429.48871-.4517 1.01886-.3891 1.53578-.1616.06753-.2928.11777-.3738.14713-1.7691.64139-4.5188 1.54671-7.0759 1.92532-1.6454.2437-3.2083.27615-4.3522-.15611-.4879-.18449-.8102-.39981-.9852-.64971.3453-.10211.6782-.2026.9962-.29851.6291-.18971 1.9387-.50371 2.8744-1.06338.7441-.44499 1.2486-1.05033 1.2193-1.809161-.015-.389857-.2431-.650038-.606-.795867-.5423-.2177656-1.4801-.1123923-1.8293-.0389883-1.0592.2221693-2.4729 1.1418463-3.1723 2.1781463-.2791.41351-.4452.8461-.4628 1.26418zm.8701-.2548c.2992-.08906.5884-.17649.8662-.26034.5872-.17714 1.8145-.45853 2.6882-.98117.4627-.27665.8404-.6081.8221-1.080009-.0015-.036702-.0382-.047138-.0707-.062145-.0503-.023-.1078-.038827-.1692-.051224-.415-.083844-.9724-.002777-1.2006.04518-.8887.186448-2.0709.963718-2.6577 1.833308-.124.18367-.2228.37077-.2783.5564zm13.712-.82375c.3875-.19721.7931-.4357 1.113-.69522.1698-.13784.3132-.27958.4039-.42672.0759-.12168.1055-.24632.0148-.366699-.0362-.048773-.0906-.049745-.1467-.040611-.0594.009788-.1204.030661-.1814.057576-.4023.175194-.8178.584464-.9513.776454-.1567.22266-.2341.45821-.2523.69522z" fill="#444" fill-rule="evenodd"/></svg>